/* XPM */
static char *_f3c27c150874fa9d4229de8c37184706dIRgBAp9GxURt54[] = {
/* columns rows colors chars-per-pixel */
"80 80 179 2 ",
"   c None",
".  c #030200",
"X  c #0E0D0B",
"o  c #130000",
"O  c #1E0700",
"+  c #1D0C01",
"@  c #100C0A",
"#  c #1F170F",
"$  c #1F1B14",
"%  c #230200",
"&  c #2B0600",
"*  c #240C01",
"=  c #2C0800",
"-  c #360200",
";  c #3D0900",
":  c #2C1305",
">  c #2F190C",
",  c #311407",
"<  c #321509",
"1  c #3A1B0D",
"2  c #351A0C",
"3  c #221B13",
"4  c #2D1D12",
"5  c #241F19",
"6  c #361F13",
"7  c #381F13",
"8  c #331F1F",
"9  c #25211A",
"0  c #2B231B",
"q  c #362014",
"w  c #392114",
"e  c #34271D",
"r  c #3A2619",
"t  c #36291E",
"y  c #3D2A1E",
"u  c #2C2422",
"i  c #342223",
"p  c #362A20",
"a  c #3D2C21",
"s  c #3D3227",
"d  c #3A352D",
"f  c #440D00",
"g  c #4A1E0D",
"h  c #5B1A03",
"j  c #53240E",
"k  c #5B250B",
"l  c #402C1F",
"z  c #4B2E1E",
"x  c #562912",
"c  c #5A2A13",
"v  c #522F1D",
"b  c #63290F",
"n  c #652E15",
"m  c #6E3417",
"M  c #64351E",
"N  c #6C391F",
"B  c #713317",
"V  c #72361C",
"C  c #743A1E",
"Z  c #7C3B1D",
"A  c #442D20",
"S  c #402F29",
"D  c #423125",
"F  c #43322B",
"G  c #5A3520",
"H  c #543422",
"J  c #543B32",
"K  c #633720",
"L  c #663B24",
"P  c #6E3C23",
"I  c #6A3F29",
"U  c #723E24",
"Y  c #793F24",
"T  c #6E4027",
"R  c #734026",
"E  c #7A4127",
"W  c #71432A",
"Q  c #7A4228",
"!  c #6B4534",
"~  c #6A6565",
"^  c #706460",
"/  c #88340D",
"(  c #8F390F",
")  c #83330D",
"_  c #973709",
"`  c #90380D",
"'  c #8D3B13",
"]  c #813F1F",
"[  c #913F17",
"{  c #913F18",
"}  c #823F20",
"|  c #81401F",
" . c #964117",
".. c #94431C",
"X. c #99441C",
"o. c #A1481A",
"O. c #AA4A1C",
"+. c #B24E1E",
"@. c #814225",
"#. c #8A4322",
"$. c #834528",
"%. c #854C2F",
"&. c #8C4A2B",
"*. c #934927",
"=. c #944A28",
"-. c #9C4D2A",
";. c #9F502D",
":. c #9D5330",
">. c #9A5838",
",. c #A54D23",
"<. c #A04F2B",
"1. c #A4532C",
"2. c #AA572F",
"3. c #B35427",
"4. c #B85728",
"5. c #BC5D2E",
"6. c #A55732",
"7. c #AA5730",
"8. c #A75833",
"9. c #A95934",
"0. c #B25E36",
"q. c #BB5E31",
"w. c #BB5E30",
"e. c #BB5E32",
"r. c #BB5D30",
"t. c #BC5F32",
"y. c #BC5E31",
"u. c #B95F33",
"i. c #B35F38",
"p. c #B25F38",
"a. c #B45F38",
"s. c #B35F38",
"d. c #B46037",
"f. c #BE6133",
"g. c #BB6036",
"h. c #B46038",
"j. c #B66139",
"k. c #B6633B",
"l. c #BC643B",
"z. c #C36437",
"x. c #C1663C",
"c. c #C3693F",
"v. c #C96B3E",
"b. c #D86B38",
"n. c #D36632",
"m. c #98674F",
"M. c #A66647",
"N. c #A86747",
"B. c #A46648",
"V. c #AC6B4B",
"C. c #AB6F52",
"Z. c #A36D55",
"A. c #AC7153",
"S. c #AC7054",
"D. c #AC7154",
"F. c #AC7053",
"G. c #B67759",
"H. c #AD7B64",
"J. c #B97E60",
"K. c #CC6E40",
"L. c #C16C42",
"P. c #D36F40",
"I. c #C67047",
"U. c #C6714A",
"Y. c #C8744B",
"T. c #D97444",
"R. c #CA7750",
"E. c #CA7951",
"W. c #C97852",
"Q. c #C97952",
"!. c #C97953",
"~. c #CA7852",
"^. c #CA7952",
"/. c #CA7853",
"(. c #C97851",
"). c #E37745",
"_. c #E67946",
"`. c #C0876B",
"'. c #E0926D",
/* pixels */
"    I.R.Q.Q.Q.Q.Q.Q.Q.Q.Q.Q.Q.Q.Q.Q.Q.Q.Q.Q.Q.Q.Q.Q.Q.Q.Q.Q.Q.Q.Q.Q.Q.Q.L.            U.Y.Q.Q.Q.Q.Q.Q.Q.Q.Q.Q.Q.Q.Q.Q.Q.Q.Q.Q.Q.Q.Q.Q.Q.Q.Q.Q.Q.Q.Q.Q.Q.Q.I.`.  ",
"  3.4.t.q.q.q.q.q.q.q.q.q.q.q.q.q.q.q.q.q.q.q.q.q.q.q.q.q.q.q.t.q.q.q.f.3.X.        c.+.f.t.q.q.t.q.q.q.q.q.q.q.t.q.q.t.q.q.q.q.q.q.q.q.q.t.q.q.q.q.q.q.t.5.[ H.",
"N.( 9.9.8.9.9.8.8.8.8.8.8.9.9.8.9.9.9.8.8.9.9.8.9.9.9.8.9.8.8.9.9.9.9.9.9...m F d C ,.8.9.9.8.9.9.9.8.8.8.8.9.9.9.9.9.8.8.8.9.8.9.8.9.9.9.8.8.9.8.8.8.8.9.9.] V ",
"C.' 6.8.6.6.6.6.8.8.6.8.8.8.8.8.8.8.8.6.8.8.8.6.6.8.8.6.8.6.8.6.8.8.8.9.6.=.N 4 3 N 2.6.9.8.8.8.8.8.8.6.6.8.6.6.8.8.8.6.8.8.8.8.8.8.8.8.6.8.6.8.8.8.8.8.8.9.Y Y ",
"S.[ 8.9.9.8.8.9.9.9.9.9.8.8.8.8.8.9.8.8.9.9.9.9.8.9.9.8.9.9.9.8.8.9.9.9.8.=.U e 0 U 2.6.9.8.9.9.9.9.8.9.9.9.8.9.8.9.8.8.9.9.9.9.9.9.8.9.9.9.9.8.8.9.9.9.9.9.} E ",
"S.{ 8.9.9.8.8.9.9.9.9.8.8.9.8.8.8.9.8.8.9.9.9.9.9.8.8.8.9.8.9.9.8.8.8.9.6.=.U e 0 U 2.6.9.9.8.9.8.9.9.8.9.9.9.8.8.8.8.9.9.9.9.8.8.8.9.9.8.8.9.9.8.9.9.8.9.9.] E ",
"S.[ 8.9.9.8.8.9.9.8.8.8.9.9.9.8.9.9.9.9.8.8.8.8.9.9.8.9.9.8.9.9.8.8.9.9.8.=.U e 0 U 2.6.9.9.8.9.9.8.8.9.8.8.9.8.9.8.8.8.8.9.9.9.9.8.9.9.8.8.8.9.9.9.9.8.9.9.] Q ",
"S.[ 8.9.8.8.9.9.8.8.8.9.9.9.9.9.9.9.9.9.8.9.9.9.8.9.8.9.9.9.8.9.9.9.9.9.8.=.U e 0 U 2.6.9.9.9.9.8.9.9.9.9.8.8.9.9.9.9.8.9.9.9.9.9.9.9.9.9.9.9.8.9.9.8.9.9.9.} Q ",
"S.{ 8.9.9.9.8.8.8.9.9.9.8.8.8.9.9.9.8.9.9.9.8.8.9.9.9.8.9.8.8.9.9.8.9.9.8.=.U e 0 U 2.6.9.9.8.8.8.9.8.9.9.8.9.9.8.9.9.9.9.9.9.9.9.8.9.9.8.9.9.9.8.9.8.8.9.9.} Q ",
"S.[ 8.9.9.9.9.8.8.9.9.9.9.9.9.9.8.9.9.8.8.9.9.9.9.8.9.9.8.8.9.9.8.9.8.9.6.-.U e 0 R 2.6.9.9.8.8.9.8.8.9.8.9.9.9.9.9.9.8.8.9.9.8.8.8.8.9.9.8.8.9.9.9.9.9.9.9.} Q ",
"S.[ 8.9.9.8.9.8.8.9.9.9.9.9.8.9.8.8.9.8.8.8.9.8.9.9.9.8.9.9.8.9.8.9.8.9.8.=.U e 0 U 7.6.9.9.8.9.9.8.9.8.9.8.9.9.9.8.9.8.8.8.9.9.8.8.9.8.9.9.8.9.9.9.8.9.9.9.} Q ",
"S.{ 8.9.9.8.8.8.9.8.8.9.9.9.8.8.9.8.8.9.9.8.8.9.9.9.9.9.8.8.9.8.8.9.8.9.8.=.U e 0 U 7.6.9.9.8.8.9.8.9.9.8.8.8.8.8.9.9.8.8.8.8.9.9.8.8.8.8.9.9.9.9.9.9.9.9.9.] E ",
"S.[ 8.9.8.8.8.8.9.8.8.9.8.9.8.8.9.8.8.9.9.9.8.9.9.8.9.9.9.9.8.8.8.8.8.9.8.-.U e 0 U 2.6.9.9.9.8.9.9.9.9.8.9.8.8.8.8.8.9.8.9.8.9.9.8.9.9.9.9.8.8.8.8.9.9.9.9.] Q ",
"A.[ 8.9.9.8.9.9.9.9.8.9.9.9.8.9.9.9.9.8.9.8.9.9.9.9.8.9.9.9.8.8.9.8.9.9.6.-.U e 0 U 2.6.9.8.9.9.8.8.9.9.9.9.9.9.9.8.9.8.9.9.8.8.9.8.9.8.9.9.9.8.8.8.9.9.9.9.} Q ",
"S.[ 8.9.9.9.8.9.9.8.9.9.9.8.9.9.9.9.8.9.9.8.8.9.8.8.8.9.8.9.9.9.9.9.8.9.6.-.U e 0 U 2.6.9.8.8.8.9.8.8.8.8.8.8.9.9.9.9.8.8.9.9.8.9.8.8.8.9.9.9.9.9.9.8.9.9.9.] Q ",
"S.{ 8.9.9.8.9.9.8.8.9.9.8.9.9.9.8.8.8.9.8.8.9.8.9.8.8.9.9.9.8.9.9.9.8.9.8.-.U e 0 U 2.6.9.9.8.8.8.9.9.9.9.9.9.9.9.8.9.8.9.9.8.9.9.8.9.8.9.9.9.9.9.9.9.8.9.9.] E ",
"A.[ 8.9.9.8.9.9.8.8.8.9.9.8.9.9.8.9.9.8.8.8.9.9.9.9.9.9.8.8.9.9.9.8.9.9.8.-.U e 0 R 2.6.9.9.8.9.8.8.8.9.8.8.9.9.9.8.8.9.8.9.9.9.9.9.9.8.8.9.8.8.9.9.8.8.9.9.| E ",
"A.[ 8.9.9.9.9.9.9.9.9.9.9.8.8.9.9.8.9.8.8.9.9.9.9.9.9.8.8.8.9.8.8.9.8.9.8.-.U e 0 U 2.6.9.8.9.9.9.9.9.9.8.9.8.8.9.9.9.9.8.8.9.8.8.8.9.8.9.9.9.9.9.9.8.9.9.9.} Q ",
"S.[ 8.9.9.8.9.8.9.9.9.8.8.8.8.8.8.8.8.8.9.9.9.8.9.8.9.8.9.9.9.9.8.9.8.9.8.-.U e 0 U 2.6.9.8.9.8.9.9.9.8.8.9.9.8.9.9.8.8.9.9.9.9.9.8.9.8.9.9.9.9.9.9.8.8.9.9.} E ",
"S.[ 8.9.9.9.8.8.9.9.8.9.9.9.9.8.8.9.9.9.9.9.9.8.8.9.9.9.8.9.9.9.9.8.8.9.8.-.U e 0 U 2.6.9.8.8.8.8.8.8.8.9.8.9.9.8.8.8.8.8.9.9.9.9.9.9.8.8.8.8.8.9.9.9.8.9.9.} E ",
"A.[ 8.9.9.8.9.9.9.8.8.8.9.9.9.9.8.9.9.8.8.9.8.9.9.9.9.9.9.9.8.8.9.9.9.9.6.-.U e 0 U 2.6.9.9.8.8.8.8.8.9.9.8.8.9.8.9.9.9.8.8.8.9.9.8.9.8.9.8.9.8.9.9.8.9.9.9.} Q ",
"A. .9.9.9.9.9.9.9.9.9.9.9.9.9.9.9.9.9.9.9.9.9.9.9.9.9.9.9.9.9.9.9.9.9.9.9.-.U e 0 R 7.8.9.9.9.9.9.9.9.9.9.9.9.9.9.9.9.9.9.9.9.9.9.9.9.9.9.9.9.9.9.9.9.9.9.9.@.Q ",
"N. .h.h.a.i.s.s.s.s.s.i.s.s.s.s.i.i.a.i.s.s.s.s.s.s.s.s.s.i.s.i.a.i.i.h.s.<.Y e 0 R u.9.h.s.s.i.i.i.s.s.i.i.s.s.s.s.s.s.s.i.i.i.s.s.i.i.i.i.s.s.s.s.s.s.h.h.#.C ",
"  - j c x x x x x x x x x x x x x x x x x x x x x x x x x x x x c x x x c n v y e z c c x c c c c c c c c c c c c c c c c c c c c c c c c c c c c c c c c c ; ! ",
"    O * : : : : : : : : : : : : : : : : : : : : : : : : : : : : : : : : , w e y a e 6 , : : : : : : : : : : : : : , , , , , , , , , , , , , < , < < < < , * J   ",
"    D > y y y y y y y y y y y y y y y y y y y y y y y y y y y y y y y y y a y y y y a y y y y y y y y y y y y y y y y y y y y y y y y y y y y y y y y y r *     ",
"    u $ 9 9 9 9 9 9 9 9 9 9 9 9 5 e a y y a y 9 9 9 9 9 9 9 9 9 9 9 9 9 9 5 9 9 5 5 5 9 9 9 9 9 9 9 9 9 9 9 9 9 9 e a a a a e 9 9 9 9 9 9 9 9 9 9 9 9 9 3 .     ",
"    P P W W W W W W W W W W W W Q A 0 y y e 0 I Q W W W W W W W W W W W W W W W W W W W W W W W W W W W W W W W W y 0 y y 0 e W W W W W W W W W W W W W T k     ",
"  '.n.T.T.T.T.T.T.T.T.T.T.T.T.T._.:.y e y 0 %.).T.T.T.T.T.T.T.T.T.T.T.T.T.T.T.T.T.T.T.T.T.T.T.T.T.T.T.T.T.T.T.T.).&.e e e e :._.T.T.T.T.T.T.T.T.T.T.T.T.T.b.9.  ",
"G._ h.h.i.i.s.i.s.i.s.s.s.i.s.h.s.7.$.e 9 L z.s.h.s.s.i.i.s.s.i.s.i.i.s.i.s.s.s.s.i.i.s.s.s.i.i.i.a.i.i.s.i.s.h.s.1.U 0 0 R z.s.a.i.i.s.s.s.i.s.s.s.i.s.h.l.) $.",
"B.' 6.6.6.6.6.6.6.6.6.6.6.6.6.6.6.-.$.y 9 P 1.;.8.6.6.6.6.6.6.6.6.6.6.6.6.6.6.6.6.6.6.6.6.6.6.6.6.6.6.6.6.6.6.8.6.&.U e 0 Q 2.6.6.6.6.6.6.6.6.6.6.6.6.6.6.8.Y V ",
"A.{ 8.9.9.9.8.8.9.9.9.8.9.9.9.9.8.;.@.y 0 L 2.6.9.8.9.9.9.9.8.8.9.9.9.9.8.8.9.9.9.9.9.9.8.9.8.8.9.9.9.9.9.9.9.9.8.*.P e 0 R 2.6.9.8.9.9.9.9.8.9.9.8.8.9.9.9.] E ",
"S.[ 8.9.9.9.9.8.8.9.8.9.9.9.8.9.8.;.@.y 0 L 2.6.9.9.9.9.9.8.9.9.9.9.9.9.8.8.9.9.9.9.9.9.9.8.8.9.8.9.8.8.9.9.9.9.7.*.P e 0 R 2.6.9.9.8.8.8.8.9.9.9.9.8.9.9.9.] Q ",
"A.[ 8.9.9.8.9.8.9.8.8.9.9.8.8.9.8.;.@.y 9 L 2.6.9.8.8.9.8.9.9.9.8.9.8.9.9.9.9.9.9.8.8.9.8.9.9.9.8.8.9.8.8.8.8.9.8.*.P e 0 R 7.6.9.8.8.9.8.9.9.9.9.9.9.9.9.9.] Q ",
"A.[ 8.9.9.8.9.9.8.9.9.9.9.9.9.9.9.;.@.y 9 L 2.6.9.8.8.9.9.9.8.9.9.9.9.8.9.9.9.9.9.8.8.9.8.9.8.8.9.8.9.9.8.8.9.9.8.*.P e 0 R 2.6.9.9.9.8.9.9.9.9.8.8.9.9.9.9.] E ",
"A.[ 8.9.9.9.9.9.8.9.9.8.8.9.9.9.8.;.@.y 0 L 2.6.9.9.9.9.9.8.8.9.9.8.9.9.9.9.9.9.9.9.9.9.8.9.8.8.9.8.9.9.9.9.9.9.8.*.P e 0 R 2.6.9.9.9.9.9.9.8.9.9.9.8.9.9.9.] E ",
"A.[ 8.9.9.9.9.9.9.8.8.8.8.9.9.9.8.;.Q y 9 L 2.6.9.9.8.9.9.8.9.8.8.8.9.8.9.8.8.9.8.9.9.9.8.9.8.8.9.9.9.8.9.9.8.9.8.*.P e 0 R 2.6.9.9.9.9.8.9.9.8.8.9.8.8.9.9.} Q ",
"A.{ 8.9.9.9.9.9.9.8.9.9.9.8.8.9.8.;.@.y 9 L 2.6.9.8.9.8.8.9.8.9.9.9.9.8.8.9.9.8.9.9.9.9.9.9.8.8.9.9.9.9.8.9.9.9.6.*.U e 0 R 2.6.9.9.9.9.9.8.8.9.8.8.8.9.9.9.} Q ",
"A.[ 8.9.9.8.8.9.8.9.8.9.9.9.9.9.8.;.@.y 0 L 2.6.9.9.9.9.8.8.8.9.8.9.9.9.9.8.8.9.9.9.8.9.9.8.8.9.9.9.8.8.8.9.9.9.8.*.P e 0 R 2.6.9.8.9.8.9.9.8.9.9.9.9.9.9.9.} E ",
"A.[ 8.9.8.8.8.8.8.8.9.9.8.9.8.9.8.;.@.y 0 L 2.6.9.8.8.8.8.8.8.9.9.8.9.8.9.8.8.9.8.9.9.9.8.8.9.9.9.9.8.8.8.9.8.9.6.*.P e 0 R 2.6.9.9.8.9.9.9.9.9.9.8.9.9.9.9.] E ",
"S.[ 8.9.8.9.9.8.9.8.9.9.8.9.8.9.9.;.@.y 0 L 2.6.9.8.8.8.9.8.8.8.8.9.9.9.8.9.8.8.8.9.8.8.8.8.8.9.8.8.8.9.9.8.9.9.8.*.P e 0 R 2.6.9.8.8.9.9.9.9.9.8.8.8.9.9.9.] Q ",
"S.[ 8.9.8.8.9.9.9.8.9.9.9.9.9.9.8.;.@.y 0 L 2.6.9.9.8.8.9.9.8.8.8.9.8.9.9.9.9.8.8.8.8.9.9.9.9.8.9.8.8.8.8.8.9.9.8.*.U e 0 R 7.6.9.9.9.9.8.8.9.9.8.9.8.9.9.9.] Q ",
"A.[ 8.9.9.8.9.9.9.8.9.8.9.9.9.9.8.;.$.y 0 L 2.6.9.9.8.8.8.9.8.8.9.8.8.9.9.9.8.9.9.8.9.9.9.8.9.9.9.9.8.9.8.9.9.9.6.*.U e 0 R 7.6.9.9.9.9.8.9.8.9.9.9.9.9.9.9.] Q ",
"S.{ 8.9.9.9.8.8.9.9.8.8.9.9.9.9.8.;.$.y 9 L 2.6.9.8.9.9.9.8.9.8.9.9.9.9.9.9.8.9.9.8.9.8.8.8.9.9.8.9.9.9.9.9.9.9.8.*.U e 0 R 7.6.9.8.9.9.9.9.8.8.9.9.9.9.9.9.} Q ",
"S.{ 8.9.8.8.9.9.9.9.8.9.9.8.9.9.8.;.@.y 0 L 2.6.9.8.9.9.8.9.9.8.9.8.9.9.8.9.8.9.8.8.9.9.9.8.9.8.8.8.8.9.8.9.8.9.8.*.U e 0 R 7.6.9.8.9.9.9.9.9.8.8.9.9.8.9.9.] Q ",
"A.[ 8.9.9.9.9.8.8.9.9.9.8.9.9.9.8.;.@.y 0 L 2.6.9.9.9.9.9.9.9.9.8.8.9.9.8.9.9.9.9.9.9.8.8.8.9.8.9.9.8.9.8.8.8.9.8.*.U e 0 R 7.6.9.9.8.8.8.8.9.8.8.9.8.9.9.9.] Q ",
"S.[ 8.9.9.8.9.9.8.9.8.8.8.9.9.9.8.;.$.y 9 L 2.6.9.9.9.9.9.9.9.9.8.8.8.9.8.8.9.9.8.9.8.8.9.9.9.9.9.8.9.8.8.8.9.9.8.*.U e 0 R 2.6.9.9.8.8.8.8.9.8.8.9.8.9.9.9.} E ",
"A.[ 8.9.8.8.9.9.9.8.8.8.8.8.8.9.8.;.$.y 0 L 2.6.9.8.8.9.9.8.8.9.9.9.9.9.9.9.8.9.8.9.9.8.9.8.9.9.9.9.8.9.9.9.8.9.8.*.U e 0 R 2.6.9.9.9.9.9.9.9.9.8.9.9.9.9.9.} E ",
"A.[ 8.9.8.9.8.8.9.8.9.9.8.9.9.9.8.;.$.y 9 L 2.6.9.8.9.8.9.9.8.9.8.9.9.8.9.9.9.9.9.8.9.9.9.9.9.9.9.8.9.8.8.9.9.9.6.=.U e 0 R 2.6.9.8.9.9.9.9.8.8.8.9.9.9.9.9.@.Q ",
"V.o.l.l.l.l.l.l.l.l.l.l.l.l.l.l.l.7.&.y 9 P q.h.l.l.l.l.l.l.l.l.l.l.l.l.l.l.l.l.l.l.l.l.l.l.l.l.l.l.l.l.l.l.l.x.l.1.E e 0 Q g.l.l.l.l.l.l.l.l.l.l.l.l.l.l.x.*.Y ",
"m.h @.@.@.@.@.@.@.@.@.@.@.@.@.@.@.@.U y 0 G #.@.@.@.@.@.@.@.@.@.@.@.@.@.@.@.@.@.@.@.@.@.@.@.@.$.@.@.@.@.@.@.@.@.@.Z M e e K #.@.@.@.@.@.@.@.@.@.@.@.@.@.@.$.h M ",
"  J o O O O O O O O O O O O O O O 1 y a y e 6 * O O O O O O O O O O O O O O O O O O O O O O O O O O O O O O O O * 1 y y y e 2 * O O O O O O O O O O O O O o <   ",
"    4 > q 6 6 6 q q 6 q 6 6 q q 7 y a y y a y w 6 q 6 6 q q q 6 q 6 6 q q q q q 6 6 q q 6 6 6 6 6 q q q 6 q q 6 q y y y y y y q 6 6 q q 6 6 6 q 6 6 6 6 6 O     ",
"    s 4 e p e p p e p p e p e p p e e e e e e e p e p p p p p p e p p p p a a a a a a a p p p p p e p p p p e e p e e e e e e p e p p p p p p e p p p p e +     ",
"    F > y y y y y y y y y y y y y y y y y y y y y y y y y y y y y y y y y 0 y y y y 0 e l y y y y y y y y y y y y y y y y y y y y y y y y y y y y y y y r *     ",
"    u.d.h.h.k.h.k.h.h.h.k.k.h.k.h.h.h.k.h.h.h.h.k.h.k.h.h.h.h.h.k.k.h.l.x.W 0 y y 9 L l.l.h.h.h.h.k.k.h.k.k.h.h.k.k.h.h.h.k.h.h.h.h.k.k.k.h.h.h.k.h.h.h.h.2.J.  ",
"  O.z.K.v.v.v.v.v.v.v.v.v.v.v.v.v.v.v.v.v.v.v.v.v.v.v.v.v.v.v.v.v.v.v.v.v.a.L 0 0 H x.P.v.v.v.v.v.v.v.v.v.v.v.v.v.v.v.v.v.v.v.v.v.v.v.v.v.v.v.v.v.v.v.v.v.v.` Z.",
"M.' 8.8.8.8.8.6.6.8.8.8.6.8.8.8.8.8.8.8.8.8.8.8.8.8.8.8.8.8.8.8.8.8.8.9.6.-.@.e 0 Q 0.6.8.8.8.8.8.6.8.8.8.8.8.6.8.8.8.8.8.8.8.8.8.8.8.8.8.8.8.8.8.8.8.8.8.9.] B ",
"C.[ 8.9.9.8.9.8.8.8.8.8.8.9.8.8.8.8.8.8.9.8.8.8.9.8.9.8.8.8.8.8.8.8.8.9.6.-.U e 0 U 2.6.9.8.9.8.8.9.8.9.9.8.8.8.9.8.8.8.8.7.8.8.8.8.8.8.8.6.8.8.8.8.8.8.9.9.} E ",
"S.[ 8.9.8.9.9.9.9.9.9.9.8.9.9.9.8.9.9.8.8.8.9.8.8.8.9.9.9.9.8.9.8.9.9.9.8.-.Y e 0 U 2.6.9.8.9.8.8.9.9.8.9.9.8.9.8.9.9.8.9.9.9.8.9.9.8.9.9.8.9.8.9.9.8.9.9.9.} Q ",
"S.{ 8.9.8.8.9.9.9.8.9.8.8.9.8.9.9.8.9.9.9.9.9.9.8.9.8.9.9.8.8.9.8.9.9.9.8.-.Y e 0 U 2.6.9.8.8.9.9.9.9.8.9.9.9.8.8.9.9.9.9.9.9.8.8.9.9.9.8.9.8.9.9.9.8.8.9.9.] Q ",
"S.{ 8.9.9.8.8.8.8.8.9.9.9.8.8.9.9.8.9.9.8.8.9.8.9.9.8.9.8.8.8.9.9.8.9.9.8.-.Y e 0 U 2.6.9.9.8.9.9.9.9.8.9.9.8.9.8.9.9.9.8.8.8.8.9.9.9.8.8.8.9.9.8.8.8.8.9.9.} Q ",
"S.[ 8.9.9.8.8.8.9.8.9.9.8.9.9.8.8.8.8.9.9.9.9.8.9.9.8.9.8.9.9.8.9.8.8.9.8.-.Y e 0 U 2.6.9.9.9.8.9.9.8.9.9.8.8.9.8.8.9.9.9.9.9.9.8.8.9.8.9.9.9.8.9.8.8.8.9.9.} E ",
"A.[ 8.9.8.8.9.9.8.8.8.9.8.8.8.9.9.8.8.8.9.8.9.8.8.8.9.9.9.9.8.9.8.9.8.9.8.-.Y e 0 U 2.6.9.9.8.8.8.9.9.8.8.8.9.9.8.8.8.9.9.9.9.9.9.9.8.8.9.8.8.8.9.8.9.9.9.9.] E ",
"A.[ 8.9.8.9.9.8.9.9.8.9.9.8.9.9.9.9.9.8.9.9.8.8.9.8.8.8.9.9.9.8.8.9.8.9.8.-.Y e 0 U 2.6.9.8.8.9.8.9.9.8.8.8.8.8.9.9.9.8.9.9.8.8.9.9.9.9.9.8.9.9.8.8.9.8.9.9.@.Q ",
"S.[ 8.9.8.8.9.9.8.9.8.8.9.8.9.9.8.9.9.8.9.9.9.8.8.8.9.8.9.9.9.8.8.8.9.9.8.-.Y e 0 U 2.6.9.8.9.9.8.9.8.8.9.8.8.9.8.8.8.8.8.8.8.9.9.8.9.9.8.9.9.9.8.8.9.8.9.9.} Q ",
"S.[ 8.9.9.9.9.9.8.9.9.8.8.9.8.9.9.8.9.9.9.9.9.8.9.9.9.8.9.9.9.9.8.8.8.9.8.-.Y e 0 U 2.6.9.8.9.8.9.8.9.9.9.9.8.9.9.9.9.9.8.9.9.9.9.8.8.9.8.9.9.8.9.9.9.9.9.9.] Q ",
"S.{ 8.9.8.9.9.9.9.8.9.9.9.9.8.8.8.8.8.9.9.9.8.8.9.9.9.9.9.9.8.9.9.8.8.9.8.-.Y e 0 U 2.6.9.9.9.8.8.8.9.9.9.9.8.8.8.8.9.9.9.8.9.8.8.8.8.9.9.8.9.9.8.9.8.9.9.9.@.Q ",
"S.[ 8.9.8.9.9.9.9.8.9.9.9.9.9.8.8.9.8.8.8.9.9.9.8.8.9.8.9.9.9.8.8.8.9.9.8.-.Y e 0 U 2.6.9.9.9.8.8.9.8.9.9.9.9.8.9.9.8.8.9.8.8.9.8.9.8.8.8.8.8.9.9.8.9.9.9.9.} Q ",
"S.[ 8.9.9.9.8.8.9.9.9.9.8.9.8.8.9.8.8.9.8.8.9.8.8.8.8.9.9.9.9.9.8.8.9.9.8.-.Y e 0 U 2.6.9.8.8.8.9.8.8.9.9.9.8.8.9.9.9.9.8.8.8.9.9.8.9.9.8.9.8.9.9.8.9.9.9.9.} Q ",
"A.[ 8.9.8.9.9.8.8.9.9.9.9.9.9.9.8.9.9.8.9.9.8.8.8.9.9.9.8.8.8.8.8.9.9.9.8.-.Y e 0 U 2.6.9.9.9.8.9.8.9.8.9.9.9.8.9.8.9.9.8.8.9.9.9.9.9.9.9.9.9.8.8.8.9.9.9.9.} Q ",
"A.{ 8.9.8.8.8.9.9.8.8.8.9.8.9.8.8.8.9.8.9.9.9.9.9.9.9.9.9.8.9.8.8.9.9.9.8.-.Y e 0 U 2.6.9.8.9.8.8.8.8.8.8.8.8.8.9.9.9.9.9.8.9.9.9.9.9.9.8.8.9.9.8.8.9.9.9.9.] Q ",
"A.[ 8.9.9.8.8.8.9.9.8.9.8.9.8.8.8.8.9.9.9.9.8.9.9.9.9.9.9.8.9.9.9.8.8.9.8.-.Y e 0 U 2.6.9.8.9.8.9.9.8.9.9.8.8.9.9.9.8.9.8.8.9.8.9.8.9.8.8.8.9.9.9.8.8.9.9.9.} E ",
"A.[ 8.9.9.8.8.9.9.9.9.9.8.9.9.9.8.8.9.9.9.8.9.8.9.9.8.9.8.8.8.8.8.8.9.9.8.-.Y e 0 U 2.6.9.9.9.8.9.9.8.9.9.8.8.9.8.8.9.9.9.9.8.8.8.8.9.9.8.9.9.8.9.8.9.8.9.9.} Q ",
"A.[ 8.9.8.8.9.9.9.8.8.8.9.9.8.8.9.9.8.8.8.9.9.9.9.8.9.8.8.9.9.9.9.9.9.9.8.-.Y e 0 U 2.6.9.8.9.8.9.9.9.8.8.9.9.8.9.9.9.9.8.9.9.8.8.8.9.8.8.8.9.8.9.9.8.8.9.9.} E ",
"S.{ 8.9.9.9.9.8.9.9.9.9.9.9.9.8.9.9.8.9.8.9.8.9.9.8.8.9.9.8.8.9.9.9.8.9.8.-.E e 0 R 2.6.9.9.8.8.8.9.9.8.9.8.8.8.9.9.8.9.8.9.9.9.8.9.8.9.9.9.9.8.9.9.8.9.9.9.@.E ",
"A. .9.s.s.s.s.s.s.s.s.9.s.s.s.s.s.s.s.s.s.s.s.9.s.s.s.s.s.s.s.s.9.s.s.s.9.1.Y 4 # P 0.9.i.s.s.s.s.s.s.s.s.s.9.s.9.s.s.s.s.s.s.s.s.s.s.s.s.s.9.s.s.s.s.s.s.i.#.Q ",
">./ 9.8.9.8.8.8.8.8.8.8.8.8.9.8.8.8.8.8.8.8.8.8.8.8.8.8.8.8.8.8.8.8.9.9.9.-.k @ X j ,.8.9.8.8.8.8.8.8.8.8.8.8.8.8.8.8.8.8.8.8.8.8.8.8.8.8.8.8.8.8.8.8.8.8.9.Z b ",
"  f % & & & & & & & & & & & & & & & & & & & & & & & & & & & & & & & & & % %         g % & & & & & & & & & & & & & & & & & & & & & & & & & & & & & & & & = % . ^ ",
"    i a F F F F F F F F F F F F F F F F F F F F F F F F F F F F F F F F i             8 S F F F F F F F F F F F F F F F F F F F F F F F F F F F F F F F F u ~   "
};